<?xml version="1.0" encoding="utf-8"?>
<!-- Generator: Adobe Illustrator 21.0.0, SVG Export Plug-In . SVG Version: 6.00 Build 0)  -->
<svg version="1.1" id="Ebene_1" xmlns="http://www.w3.org/2000/svg" xmlns:xlink="http://www.w3.org/1999/xlink" x="0px" y="0px"
	 viewBox="0 0 841.9 595.3" style="enable-background:new 0 0 841.9 595.3;" xml:space="preserve">
<style type="text/css">
	.st0{fill:none;}
	.st1{font-family:'Cabin-Regular';}
	.st2{font-size:12px;}
	.st3{font-family:'Cabin-Bold';}
</style>
<rect x="61.2" y="56.1" class="st0" width="118.2" height="14.2"/>
<text transform="matrix(1 0 0 1 61.2246 65.0933)" class="st1 st2">RÜCKENSCHMERZEN</text>
<text transform="matrix(1 0 0 1 98.0469 80.2358)" class="st1 st2">BAUCHSCHMERZEN</text>
<text transform="matrix(1 0 0 1 403.8828 94.3889)" class="st1 st2">KOPFSCHMERZEN</text>
<text transform="matrix(1 0 0 1 255.1988 64.4182)" class="st1 st2">GELENKSCHMERZEN</text>
<text transform="matrix(1 0 0 1 339.4396 80.2358)" class="st1 st2">WEICHTEILSCHMERZEN</text>
<text transform="matrix(1 0 0 1 189.4307 64.4182)" class="st1 st2">RHEUMA</text>
<text transform="matrix(1 0 0 1 61.2245 94.3889)" class="st1 st2">OSTEOPOROSE</text>
<text transform="matrix(1 0 0 1 390.8979 64.4182)" class="st1 st2">TUMORSCHMERZEN</text>
<text transform="matrix(1 0 0 1 215.2385 80.2358)" class="st1 st2">NERVENSCHMERZEN</text>
<text transform="matrix(1 0 0 1 222.7308 94.3889)" class="st1 st2">FIBROMYALGIE</text>
<text transform="matrix(1 0 0 1 112.3885 343.3085)" class="st1 st2">KOPFSCHMERZEN</text>
<text transform="matrix(1 0 0 1 214.7308 343.3085)" class="st3 st2">NACKEN UND RÜCKENSCHMERZEN</text>
<text transform="matrix(1 0 0 1 410.8727 343.3085)" class="st1 st2">SCHWINDEL</text>
<text transform="matrix(1 0 0 1 483.6258 343.3085)" class="st3 st2">TINITUS</text>
<text transform="matrix(1 0 0 1 112.3885 357.4614)" class="st3 st2">VERSPANNUNGEN DER NACKEN UND SCHULTERMUSKULATUR</text>
<text transform="matrix(1 0 0 1 183.603 474.8447)" class="st3 st2">MIGRÄNE</text>
</svg>
