<?xml version="1.0" encoding="utf-8"?>
<!-- Generator: Adobe Illustrator 26.3.1, SVG Export Plug-In . SVG Version: 6.00 Build 0)  -->
<svg version="1.1" id="Ebene_1" xmlns="http://www.w3.org/2000/svg" xmlns:xlink="http://www.w3.org/1999/xlink" x="0px" y="0px"
	 viewBox="0 0 1920 86" style="enable-background:new 0 0 1920 86;" xml:space="preserve">
<style type="text/css">
	.st0{fill:none;stroke:#FEEAD1;stroke-width:3;stroke-linecap:round;}
</style>
<path class="st0" d="M517,46.29c11.81,0.12,30.97,0.96,56.67,0.59c25.69-0.37,38.89-2.3,66.67-2.35s38.89,1.9,66.67,2.11
	s38.89-1.24,66.67-1.13c27.78,0.11,38.89,1.83,66.67,1.67c27.78-0.16,38.89-2.59,66.67-2.45s38.89,2.93,66.67,3.14
	c27.78,0.2,38.89-2.09,66.67-2.16c27.78-0.06,38.89,1.82,66.67,1.86c27.78,0.04,38.89-1.72,66.67-1.67
	c27.78,0.05,38.89,1.97,66.67,1.91c27.78-0.06,52.78-1.75,66.67-2.2"/>
</svg>
